<svg id="svg" xmlns="http://www.w3.org/2000/svg" xmlns:xlink="http://www.w3.org/1999/xlink" width="400" height="400" viewBox="0, 0, 400,400"><g id="svgg"><path id="path0" d="M197.656 2.726 C 146.947 14.112,119.210 76.655,140.918 130.661 L 144.293 139.057 133.366 150.778 C 118.536 166.688,117.140 166.445,89.063 143.058 C 70.454 127.558,32.415 99.980,12.891 87.833 C 8.164 84.893,4.180 82.209,4.036 81.868 C 3.705 81.082,1.565 81.054,1.554 81.836 C 1.550 82.158,1.321 92.793,1.045 105.469 C 0.195 144.530,0.335 324.207,1.218 328.125 C 1.976 331.486,2.133 331.641,4.798 331.641 C 7.140 331.641,8.422 332.424,12.844 336.560 C 25.815 348.691,71.872 381.398,86.735 389.033 C 102.105 396.928,120.526 401.168,121.600 397.059 C 121.803 396.283,126.255 393.039,131.493 389.849 C 140.044 384.642,155.536 374.379,193.197 348.970 C 211.338 336.731,219.373 332.157,267.578 306.631 C 272.305 304.128,280.438 299.547,285.653 296.451 L 295.134 290.821 315.340 309.548 C 351.712 343.255,367.484 359.707,380.114 377.114 C 382.672 380.640,385.255 383.724,385.852 383.968 C 387.356 384.581,390.625 382.291,390.625 380.625 C 390.625 379.871,391.629 378.155,392.856 376.812 C 394.836 374.644,395.273 373.158,396.751 363.552 C 400.538 338.950,400.527 340.018,398.421 201.563 C 396.931 103.617,397.207 111.241,394.987 106.707 C 390.021 96.563,369.213 80.216,319.323 47.266 C 310.865 41.680,304.065 36.758,304.211 36.328 C 305.507 32.514,300.087 31.718,297.558 35.352 C 296.586 36.748,294.248 39.630,292.363 41.756 C 290.479 43.882,288.299 46.870,287.520 48.397 C 284.238 54.827,283.395 54.673,280.452 47.107 C 267.850 14.708,231.373 -4.844,197.656 2.726 M221.875 11.175 C 221.875 16.452,227.358 21.741,249.609 37.927 C 257.773 43.865,266.035 50.013,267.969 51.588 C 270.664 53.784,277.822 58.727,278.633 58.952 C 278.697 58.970,278.996 61.797,279.296 65.234 L 279.843 71.484 265.117 56.890 C 241.568 33.551,217.437 14.631,206.991 11.315 C 203.592 10.237,206.753 9.375,214.109 9.375 C 221.696 9.375,221.875 9.417,221.875 11.175 M231.855 10.903 C 232.403 10.922,233.169 11.774,233.558 12.796 C 233.946 13.818,237.190 17.120,240.765 20.134 C 253.317 30.715,262.008 37.944,269.057 43.667 C 281.237 53.556,279.659 53.212,264.453 42.664 C 239.888 25.623,224.219 12.936,224.219 10.087 C 224.219 9.811,225.713 9.874,227.539 10.227 C 229.365 10.580,231.308 10.885,231.855 10.903 M209.983 16.958 L 219.024 22.979 213.613 23.872 L 208.203 24.766 204.341 21.307 C 202.216 19.405,198.939 16.743,197.058 15.392 L 193.638 12.936 196.233 11.996 C 200.273 10.533,200.407 10.581,209.983 16.958 M250.781 18.586 C 256.637 21.939,263.660 27.846,266.973 32.205 C 273.801 41.191,273.459 41.278,262.891 33.238 C 252.431 25.281,237.500 13.296,237.500 12.857 C 237.500 12.370,247.331 16.611,250.781 18.586 M203.150 27.447 C 199.369 28.390,198.723 28.094,192.543 22.588 C 185.256 16.096,185.201 16.002,188.047 15.048 C 190.064 14.372,190.813 14.806,197.681 20.634 C 204.664 26.560,205.004 26.984,203.150 27.447 M189.003 23.633 C 195.987 30.316,195.864 30.119,193.745 31.253 C 192.419 31.963,191.659 31.871,189.987 30.799 C 186.891 28.815,178.125 21.676,178.125 21.138 C 178.125 20.700,182.044 18.034,182.753 17.990 C 182.936 17.978,185.748 20.518,189.003 23.633 M186.062 32.582 C 188.741 34.833,188.927 36.719,186.472 36.719 C 185.449 36.719,178.261 31.483,174.785 28.207 L 171.836 25.426 173.614 24.077 C 175.356 22.754,175.467 22.801,179.297 26.454 C 181.445 28.503,184.490 31.261,186.062 32.582 M181.878 38.705 L 184.030 39.977 181.218 45.574 C 179.672 48.653,178.192 51.995,177.930 53.001 C 177.400 55.031,169.384 49.888,161.956 42.750 L 158.677 39.600 160.389 37.533 L 162.100 35.466 167.267 39.803 C 172.085 43.847,177.684 46.796,178.671 45.809 C 179.626 44.853,177.987 42.930,173.681 39.955 C 171.184 38.230,168.086 35.944,166.797 34.876 L 164.453 32.934 167.059 30.228 L 169.665 27.522 174.695 32.478 C 177.462 35.204,180.694 38.006,181.878 38.705 M227.273 34.419 C 235.938 38.146,241.246 47.189,241.987 59.483 C 242.506 68.088,241.854 71.875,239.854 71.875 C 237.683 71.875,237.153 73.322,238.698 75.029 C 240.375 76.882,238.960 81.416,236.815 81.066 C 235.867 80.912,235.547 81.488,235.547 83.350 C 235.547 91.637,218.822 101.499,206.291 100.603 C 175.789 98.420,173.413 44.007,203.359 33.459 C 208.982 31.478,221.616 31.985,227.273 34.419 M171.207 54.450 C 172.773 55.655,174.670 57.008,175.424 57.457 C 176.564 58.136,176.676 58.766,176.092 61.219 L 175.391 64.165 164.690 55.748 L 153.989 47.331 155.650 44.375 L 157.312 41.419 162.835 46.839 C 165.874 49.820,169.641 53.245,171.207 54.450 M308.805 47.461 C 314.471 51.962,321.596 57.054,344.922 73.274 C 365.864 87.837,378.238 98.464,387.285 109.657 C 389.765 112.725,392.043 115.422,392.348 115.651 C 392.653 115.880,392.830 147.872,392.740 186.744 C 392.651 225.617,392.740 275.703,392.938 298.047 C 393.316 340.820,393.021 346.522,389.409 366.211 C 387.848 374.715,387.924 374.675,384.240 368.929 C 374.863 354.302,346.854 326.831,311.654 297.738 L 298.047 286.492 298.588 272.348 C 299.259 254.789,300.153 241.474,303.526 198.828 C 309.597 122.069,309.478 81.157,303.087 47.456 C 302.678 45.300,302.344 43.409,302.344 43.253 C 302.344 42.505,303.573 43.306,308.805 47.461 M299.882 54.492 C 303.952 91.117,303.394 127.153,297.667 197.476 C 296.382 213.259,294.776 236.016,294.098 248.047 C 293.420 260.078,292.686 273.091,292.467 276.964 L 292.069 284.006 279.042 291.512 C 271.878 295.640,257.578 303.510,247.266 309.001 C 208.540 329.621,193.180 339.280,148.047 371.398 L 122.266 389.745 121.775 287.397 C 121.506 231.106,121.061 182.701,120.787 179.830 L 120.288 174.609 134.167 160.376 L 148.047 146.142 152.344 153.621 C 164.875 175.431,208.295 222.105,214.217 220.131 C 214.754 219.952,216.053 220.251,217.104 220.797 C 220.303 222.456,221.599 221.062,222.065 215.461 C 223.063 203.452,230.020 191.646,251.367 165.734 C 277.040 134.569,289.330 100.719,285.981 70.395 L 285.024 61.725 290.221 56.058 C 293.080 52.941,295.998 49.424,296.706 48.242 C 298.655 44.990,298.875 45.423,299.882 54.492 M270.703 69.981 C 279.693 78.086,280.790 80.273,278.213 84.956 C 277.396 86.440,249.157 64.891,249.553 63.086 C 249.901 61.502,248.781 51.869,247.984 49.592 C 247.687 48.742,250.743 51.239,254.776 55.140 C 258.809 59.041,265.977 65.720,270.703 69.981 M166.168 61.872 C 168.589 63.891,171.535 65.942,172.716 66.431 C 174.634 67.225,174.915 67.832,175.363 72.137 C 175.638 74.786,176.058 77.962,176.295 79.194 C 176.550 80.516,176.410 81.317,175.955 81.147 C 175.115 80.834,149.219 56.932,149.219 56.470 C 149.219 56.315,149.939 54.776,150.820 53.050 L 152.420 49.912 157.093 54.057 C 159.664 56.338,163.747 59.854,166.168 61.872 M180.033 91.406 C 180.721 92.051,183.122 94.536,185.369 96.928 C 187.972 99.701,191.203 102.109,194.279 103.569 C 198.301 105.478,201.097 107.941,211.076 118.363 C 227.340 135.351,236.197 143.744,249.883 155.137 C 250.033 155.262,249.920 155.747,249.631 156.215 C 249.287 156.771,248.653 156.555,247.795 155.589 C 246.279 153.882,205.686 117.407,186.719 100.708 C 173.743 89.283,159.177 77.036,150.264 70.054 L 145.449 66.283 146.605 62.892 L 147.760 59.501 163.271 74.867 C 171.802 83.319,179.345 90.762,180.033 91.406 M172.656 95.797 C 172.656 95.963,166.240 90.937,158.398 84.627 C 150.557 78.318,144.036 73.085,143.907 72.998 C 143.779 72.912,143.906 71.917,144.189 70.787 C 144.682 68.825,145.326 69.328,158.681 82.114 C 166.367 89.474,172.656 95.631,172.656 95.797 M260.669 78.320 C 278.984 93.063,277.361 91.382,276.589 94.803 C 275.511 99.583,277.299 100.539,257.258 84.463 L 247.141 76.348 247.921 72.940 C 248.928 68.539,248.067 68.176,260.669 78.320 M168.950 97.797 C 214.347 136.064,236.878 157.099,240.428 164.532 C 241.819 167.445,235.096 177.727,233.185 175.610 C 232.688 175.059,227.426 168.984,221.491 162.109 C 200.366 137.638,167.248 106.014,147.855 91.797 C 140.791 86.618,141.305 87.872,142.650 79.102 C 143.167 75.731,140.654 73.944,168.950 97.797 M251.621 84.987 C 254.446 87.443,259.856 92.183,263.643 95.520 C 267.430 98.857,271.359 101.795,272.374 102.050 C 274.267 102.525,274.436 103.083,273.555 105.950 C 273.024 107.677,259.165 99.157,247.506 89.935 L 243.176 86.511 244.363 83.490 C 245.842 79.725,245.485 79.651,251.621 84.987 M22.858 100.170 C 33.732 107.949,58.200 126.554,77.909 142.031 C 83.829 146.679,95.137 155.340,103.039 161.277 L 117.405 172.072 116.907 179.590 C 116.632 183.726,116.175 233.428,115.891 290.039 C 115.606 346.650,115.232 392.969,115.059 392.969 C 109.540 392.969,79.658 376.127,54.688 358.943 C 32.810 343.888,24.631 338.468,15.631 333.060 C 11.116 330.347,7.773 328.121,8.203 328.114 C 8.633 328.107,8.493 327.790,7.893 327.410 C 6.382 326.453,6.300 274.842,7.706 209.375 C 8.918 152.943,8.181 121.372,4.962 91.876 L 4.459 87.268 8.284 89.875 C 10.388 91.309,16.946 95.942,22.858 100.170 M246.641 94.129 C 249.402 96.486,255.844 101.419,260.956 105.091 C 271.824 112.898,271.266 112.243,270.148 115.887 C 269.009 119.599,269.159 119.638,260.734 113.441 C 256.764 110.521,249.727 105.539,245.097 102.370 C 240.466 99.201,236.775 96.404,236.894 96.155 C 237.450 94.990,241.050 89.862,241.318 89.853 C 241.484 89.848,243.880 91.772,246.641 94.129 M155.548 102.857 C 160.962 107.946,172.187 119.316,180.491 128.125 C 188.796 136.934,203.591 152.168,213.371 161.979 C 223.150 171.790,230.988 180.243,230.789 180.762 C 230.586 181.289,225.341 176.659,218.924 170.288 C 212.598 164.008,196.875 149.425,183.984 137.881 C 171.094 126.337,156.240 112.670,150.977 107.509 L 141.406 98.127 141.406 94.323 L 141.406 90.519 143.555 92.062 C 144.736 92.911,150.133 97.769,155.548 102.857 M247.882 109.217 C 255.277 114.716,262.559 120.051,264.063 121.073 C 265.566 122.095,266.900 123.002,267.026 123.088 C 267.152 123.174,266.664 124.482,265.943 125.994 L 264.632 128.744 259.074 125.358 C 249.979 119.818,241.894 114.012,235.183 108.203 L 228.864 102.734 231.034 100.980 C 233.981 98.597,232.868 98.053,247.882 109.217 M168.328 131.250 C 173.506 136.621,178.970 142.422,180.469 144.141 L 183.196 147.266 179.684 144.089 C 173.612 138.598,167.155 133.366,155.762 124.706 L 144.726 116.319 143.767 111.480 C 143.239 108.818,142.640 105.938,142.435 105.078 C 142.230 104.219,145.854 107.559,150.488 112.500 C 155.122 117.441,163.151 125.879,168.328 131.250 M248.052 124.278 C 250.917 126.368,255.253 129.030,257.686 130.195 C 260.119 131.359,262.245 132.414,262.410 132.537 C 262.849 132.866,260.836 137.500,260.254 137.500 C 259.983 137.500,258.004 136.245,255.857 134.711 C 253.710 133.176,248.190 129.648,243.591 126.870 C 236.811 122.775,233.929 120.409,228.357 114.361 C 220.259 105.572,220.487 105.989,223.229 105.000 C 225.269 104.263,225.881 104.677,234.116 112.350 C 238.915 116.821,245.186 122.189,248.052 124.278 M214.844 107.743 C 214.844 108.064,215.614 108.299,216.555 108.265 C 217.783 108.221,219.706 109.966,223.375 114.453 C 231.668 124.597,235.800 128.135,247.103 134.766 C 259.172 141.846,258.593 141.023,255.411 146.585 C 252.335 151.961,254.719 153.389,232.741 133.008 C 222.199 123.232,211.472 113.301,208.902 110.938 L 204.230 106.641 209.537 106.900 C 212.456 107.043,214.844 107.422,214.844 107.743 M170.979 144.900 C 178.435 152.217,191.244 165.410,199.444 174.219 C 207.644 183.027,215.760 191.721,217.479 193.538 C 224.684 201.152,218.713 197.217,209.934 188.566 C 204.685 183.393,192.480 171.940,182.813 163.114 C 155.956 138.596,147.656 129.280,147.656 123.654 C 147.656 122.771,158.435 132.590,170.979 144.900 M209.766 171.182 C 214.063 174.842,219.793 179.518,222.501 181.573 C 227.975 185.727,227.839 184.668,223.714 191.053 L 222.428 193.043 218.351 186.846 C 212.507 177.965,206.317 170.372,196.911 160.547 C 189.100 152.388,189.020 152.271,195.319 158.240 C 198.968 161.699,205.469 167.522,209.766 171.182 M245.960 159.375 C 247.184 159.375,247.120 160.542,245.839 161.606 C 245.032 162.275,244.498 161.823,243.416 159.555 C 242.049 156.687,242.051 156.665,243.537 158.010 C 244.366 158.761,245.457 159.375,245.960 159.375 M206.836 192.811 C 212.529 197.750,217.188 202.238,217.188 202.784 C 217.188 206.383,216.060 205.848,209.930 199.339 C 206.428 195.620,196.696 185.568,188.305 176.999 C 173.382 161.763,173.305 161.666,184.766 172.625 C 191.211 178.788,201.143 187.872,206.836 192.811 M197.018 193.381 C 211.832 208.331,214.844 211.745,214.844 213.583 C 214.844 218.402,186.966 189.001,172.706 169.141 L 169.340 164.453 174.266 169.922 C 176.975 172.930,187.214 183.486,197.018 193.381 " stroke="none" fill="#000000" fill-rule="evenodd"></path></g></svg>